<svg width="146" height="180" viewBox="0 0 146 180" xmlns="http://www.w3.org/2000/svg"><title>Group</title><g fill="#CE262C" fill-rule="evenodd"><path d="M90.185 56.168L73.573 56.168 73.573 84.79 97.774 84.79 97.774 70.421 109.01 70.421 109.01 97.143 44.162 97.143 44.162 84.79 60.758 84.79 60.758 56.168 44.177 56.168 44.162 44.879 90.185 44.879 90.185 56.168"/><path d="M0 0.641L0 145.815 59.785 179.76 59.785 145.815 145.083 145.815 145.083 95.519 128.571 95.519 128.571 128.636 16.429 128.636 16.429 15.737 128.571 15.737 128.571 50.952 145.098 50.952 145.098 0.641 0 0.641"/></g></svg>