<?xml version="1.0" encoding="UTF-8"?>
<svg width="146px" height="180px" viewBox="0 0 146 180" version="1.1" xmlns="http://www.w3.org/2000/svg" xmlns:xlink="http://www.w3.org/1999/xlink">
    <!-- Generator: Sketch 41.1 (35376) - http://www.bohemiancoding.com/sketch -->
    <title>Group</title>
    <desc>Created with Sketch.</desc>
    <defs></defs>
    <g id="Page-1" stroke="none" stroke-width="1" fill="none" fill-rule="evenodd">
        <g id="lewis-logos-(1)" fill="#CE262C">
            <g id="Group-9">
                <g id="Group">
                    <polyline id="Fill-7" points="90.185 56.168 73.573 56.168 73.573 84.79 97.774 84.79 97.774 70.421 109.01 70.421 109.01 97.143 44.162 97.143 44.162 84.79 60.758 84.79 60.758 56.168 44.177 56.168 44.162 44.879 90.185 44.879 90.185 56.168"></polyline>
                    <polyline id="Fill-8" points="0 0.641 0 145.815 59.785 179.76 59.785 145.815 145.083 145.815 145.083 95.519 128.571 95.519 128.571 128.636 16.429 128.636 16.429 15.737 128.571 15.737 128.571 50.952 145.098 50.952 145.098 0.641 0 0.641"></polyline>
                </g>
            </g>
        </g>
    </g>
</svg>